<svg width="32" height="32" viewBox="0 0 40 40" fill="none" xmlns="http://www.w3.org/2000/svg">
  <defs>
    <linearGradient id="vs_navy" x1="4" y1="4" x2="26" y2="34" gradientUnits="userSpaceOnUse">
      <stop stopColor="#0f172a" />
      <stop offset="1" stopColor="#1e293b" />
    </linearGradient>
    <linearGradient id="vs_blue" x1="14" y1="12" x2="36" y2="36" gradientUnits="userSpaceOnUse">
      <stop stopColor="#0284c7" />
      <stop offset="1" stopColor="#0369a1" />
    </linearGradient>
    <linearGradient id="vs_acc" x1="18" y1="6" x2="34" y2="22" gradientUnits="userSpaceOnUse">
      <stop stopColor="#38bdf8" />
      <stop offset="1" stopColor="#0284c7" />
    </linearGradient>
  </defs>
  <path
    d="M7 8C7 7.44772 7.44772 7 8 7H14.5C15.1189 7 15.6811 7.37792 15.9082 7.94565L20 18.175L14.0918 28.0543C13.8647 28.6221 13.3025 29 12.6836 29H8C7.44772 29 7 28.5523 7 28V8Z"
    fill="url(#vs_navy)"
  />
  <path
    d="M13.2 24.5L18.8 33.2C19.2 33.8 20.05 33.95 20.65 33.55C20.85 33.4 21.05 33.15 21.2 32.85L33.2 10.4C33.55 9.75 33.3 8.95 32.65 8.6C32.4 8.45 32.1 8.4 31.8 8.4H25.4C24.75 8.4 24.15 8.8 23.85 9.4L17.5 21.5L15.3 18.2C14.9 17.6 14.1 17.45 13.5 17.85C12.9 18.25 12.75 19.05 13.15 19.65L13.2 24.5Z"
    fill="url(#vs_blue)"
  />
  <path
    d="M21.5 8.5C21.5 7.67157 22.1716 7 23 7H31C31.5523 7 32 7.44772 32 8C32 8.22 31.92 8.43 31.78 8.6L24.8 20.5L21.5 15.2V8.5Z"
    fill="url(#vs_acc)"
    opacity="0.95"
  />
  <circle cx="20" cy="20" r="2" fill="#ffffff" />
</svg>
